HIERARCHY
ROOT pelvis
{
  OFFSET 0 100 0
  CHANNELS 6 Xposition Yposition Zposition Zrotation Xrotation Yrotation
  JOINT pelvis_right_femur
  {
    OFFSET -10.78128 -3.44521 -0.5502486
    CHANNELS 3 Zrotation Xrotation Yrotation
    JOINT right_femur_tibia
    {
      OFFSET -0.8047443 -44.0398 -0.1307829
      CHANNELS 3 Zrotation Xrotation Yrotation
      JOINT right_tibia_foot
      {
        OFFSET 3.006224 -47.83518 -5
        CHANNELS 3 Zrotation Xrotation Yrotation
        End Site
        {
          OFFSET 0 -5 15
        }
      }
    }
  }
  JOINT pelvis_left_femur
  {
    OFFSET 10.78128 -3.44521 -0.5502486
    CHANNELS 3 Zrotation Xrotation Yrotation
    JOINT left_femur_tibia
    {
      OFFSET 0.8047443 -44.0398 -0.1307829
      CHANNELS 3 Zrotation Xrotation Yrotation
      JOINT left_tibia_foot
      {
        OFFSET -4.370144 -48.10324 -4.275266
        CHANNELS 3 Zrotation Xrotation Yrotation
        End Site
        {
          OFFSET 0 -5 15
        }
      }
    }
  }
  JOINT pelvis_spine1
  {
    OFFSET 0 6.468898 -3.129235
    CHANNELS 3 Zrotation Xrotation Yrotation
    JOINT spine1
    {
      OFFSET 0 23.15396 4.99043
      CHANNELS 3 Zrotation Xrotation Yrotation
      JOINT spine2
      {
        OFFSET 0 20.79997 -5.064912
        CHANNELS 3 Zrotation Xrotation Yrotation
        JOINT neck
        {
          OFFSET 0 14.38658 9.616178
          CHANNELS 3 Zrotation Xrotation Yrotation
          End Site
          {
            OFFSET 0 20 0
          }
        }
      }
      JOINT right_manubrium
      {
        OFFSET -5.722621 16.35077 3.967754
        CHANNELS 3 Zrotation Xrotation Yrotation
        JOINT right_clavicle
        {
          OFFSET -13.16364 1.694482 -4.693211
          CHANNELS 3 Zrotation Xrotation Yrotation
          JOINT right_humerus
          {
            OFFSET -28.5034 -0.3100689 -2.792744
            CHANNELS 3 Zrotation Xrotation Yrotation
            JOINT right_radius
            {
              OFFSET -25.15693 0.02248979 -1.271978
              CHANNELS 3 Zrotation Xrotation Yrotation
              End Site
              {
                OFFSET -15 0 0
              }
            }
          }
        }
      }
      JOINT left_manubrium
      {
        OFFSET 5.722621 16.35077 3.967754
        CHANNELS 3 Zrotation Xrotation Yrotation
        JOINT left_clavicle
        {
          OFFSET 13.16364 1.694482 -4.693211
          CHANNELS 3 Zrotation Xrotation Yrotation
          JOINT left_humerus
          {
            OFFSET 29.39168 -1.063119 -2.237045
            CHANNELS 3 Zrotation Xrotation Yrotation
            JOINT left_radius
            {
              OFFSET 24.59957 -0.9528479 0.9047498
              CHANNELS 3 Zrotation Xrotation Yrotation
              End Site
              {
                OFFSET 15 -0 -0
              }
            }
          }
        }
      }
    }
  }
}
MOTION
Frames: 13
Frame Time: 0.0416666666667
0 103.5113 0 2.689007 -0.02974175 0.2448222 3.41304 -15.47662 9.998335 -0 36.87789 -0 -4.070135 -19.66252 -2.713349 -8.649207 9.163767 -22.17329 -0 4.366486 -0 19.77956 -10.05338 27.70004 -3.304976 -2.750558 4.456242 2.511587 9.330823 -7.924658 1.628907 20.33044 7.514747 4.048023 -27.235 10.36529 5.704663 -20.16424 10.95564 86.50035 37.90037 -18.39474 -0 0 16.40728 -8.133334 9.138465 3.869077 7.478892 -20.60414 0.1548399 -92.26029 21.55246 19.81796 0 0 -14.81224 15.07987 15.35966 -4.027483
0.4200252 103.6065 1.460846 2.315416 1.172216 0.3998182 4.332792 -17.79658 10.36516 -0 36.39449 -0 -4.317439 -18.78055 -2.375174 -8.77959 9.062854 -22.22826 -0 4.949266 -0 20.24323 -11.007 28.29327 -3.320307 -2.657839 4.354652 2.561061 9.249618 -8.003294 1.599094 20.14865 7.69313 4.200053 -27.33838 10.36703 5.651553 -20.02621 10.97368 86.54047 37.82966 -18.483 -0 0 16.08669 -8.299992 9.269263 4.07508 7.610933 -20.71248 0.2226872 -91.81183 21.46761 19.12775 0 0 -15.76376 14.92805 15.03956 -3.951669
0.7613985 103.3003 3.37237 1.692896 0.5682323 0.5901127 3.901885 -20.13043 6.403454 -0 30.84869 -0 -6.229211 -14.57772 -1.429176 -8.074695 10.58172 -21.15326 -0 5.004968 -0 15.42319 -15.08485 26.47318 -2.79641 -2.316217 4.197861 2.870318 9.29325 -8.365838 1.481082 19.721 7.814701 4.285568 -27.47361 10.06489 5.169663 -19.37832 11.12278 87.14174 36.28896 -19.60265 -0 0 14.56391 -8.842896 9.522137 4.537586 7.664904 -21.23025 0.0816569 -90.82913 21.22738 17.7361 0 0 -18.13376 13.838 14.07016 -2.891052
1.057626 103.0883 5.319921 1.115777 1.580927 0.675423 4.547659 -22.53271 6.693244 -0 29.74327 -0 -6.294484 -13.57187 -1.441881 -7.847284 10.91338 -21.28394 -0 5.335538 -0 13.37678 -17.22171 26.19662 -2.535861 -2.113006 4.087321 3.030525 9.273686 -8.574623 1.404978 19.43957 7.940484 4.392116 -27.5127 9.884756 4.928768 -18.95866 11.18588 87.44582 35.49038 -20.23768 -0 0 13.6499 -9.206647 9.716326 4.85803 7.767152 -21.55963 0.01674164 -90.17814 21.11849 16.77956 0 0 -19.72224 13.17348 13.43672 -2.181839
1.328008 102.6986 7.638799 0.6742609 1.979702 0.7980886 4.848715 -25.53652 5.070698 -0 26.06266 -0 -7.205829 -10.50459 -0.8205792 -7.557133 11.45725 -20.04758 -0 5.959106 -0 12.09218 -19.07586 24.95581 -2.336276 -1.956764 4.001194 3.123978 9.212394 -8.734141 1.342455 19.1511 8.118571 4.563487 -27.49713 9.744534 4.845878 -18.5433 11.21002 87.60141 34.99572 -20.78095 -0 0 12.88347 -9.509284 9.998626 5.164049 7.952779 -21.88109 -0.006299685 -89.63423 21.20352 15.9328 0 0 -21.31048 12.50181 12.90254 -1.29982
1.584775 102.2569 10.28227 0.2200713 2.785493 0.9525107 5.430349 -28.58435 4.418254 -0 23.09093 -0 -7.712721 -8.060286 -0.3805532 -7.352454 11.79049 -19.11602 -0 6.822444 -0 11.19089 -20.62749 23.9856 -2.178781 -1.825388 3.934347 3.177937 9.135682 -8.861519 1.283539 18.88488 8.30714 4.750174 -27.45489 9.624399 4.804955 -18.17798 11.21599 87.71283 34.67918 -21.24433 -0 0 12.24553 -9.807203 10.29156 5.44553 8.164218 -22.18348 -0.01259623 -89.15698 21.31332 15.18761 0 0 -22.77019 11.91236 12.43649 -0.4737063
1.832137 101.6931 13.43874 -0.1077777 3.228794 1.194844 5.717015 -31.38594 3.003427 -0 19.38537 -0 -8.53853 -4.793035 0.3852839 -7.166411 12.3531 -17.69084 -0 8.215172 -0 10.52734 -21.81114 22.61667 -2.027238 -1.70498 3.885561 3.205604 9.061327 -8.973257 1.22397 18.63049 8.493307 4.943795 -27.37455 9.497287 4.788548 -17.8304 11.2129 87.80769 34.44388 -21.6905 -0 0 11.67019 -10.12437 10.60097 5.718762 8.388143 -22.48888 -0.02593287 -88.7268 21.45319 14.52262 0 0 -24.15698 11.32359 12.00167 0.3909047
2.072584 101.0708 17.21997 -0.4276617 3.460796 1.55884 5.947674 -33.72097 1.464854 -0 15.9917 -0 -9.553713 -1.225787 1.318933 -6.94081 13.11705 -16.17016 -0 10.31689 -0 9.668333 -22.63151 20.99482 -1.874696 -1.591908 3.848909 3.221499 9.010326 -9.076798 1.16363 18.40835 8.644776 5.112664 -27.25444 9.349414 4.767695 -17.50826 11.20903 87.91241 34.21507 -22.12541 -0 0 11.14734 -10.4642 10.88719 5.976835 8.585039 -22.78147 -0.06975737 -88.34468 21.57905 13.95039 0 0 -25.3766 10.74197 11.59033 1.245445
2.304536 100.4653 21.76037 -0.7829974 3.203374 2.048679 6.139891 -35.09135 -0.2948567 -0 13.33257 -0 -10.81683 2.546604 2.388447 -6.562433 14.1771 -14.42318 -0 13.56687 -0 8.19649 -22.73892 18.82636 -1.717828 -1.489585 3.819642 3.237087 9.008507 -9.174937 1.106011 18.24242 8.724188 5.224936 -27.07998 9.165681 4.746084 -17.21164 11.21099 88.02227 33.93012 -22.54555 -0 0 10.68006 -10.80543 11.11298 6.209932 8.709437 -23.03558 -0.1734192 -88.03717 21.68758 13.51215 0 0 -26.30549 10.14348 11.20764 2.099119
2.536704 100.0642 27.09162 -1.326498 2.585088 2.59362 6.715885 -35.03651 -1.481132 -0 12.23459 -0 -11.94199 5.518883 3.173233 -5.893859 15.16837 -12.66608 -0 18.49769 -0 5.677074 -21.65507 16.02506 -1.564291 -1.405352 3.792963 3.263315 9.081196 -9.264006 1.057145 18.16488 8.690943 5.245137 -26.83897 8.937307 4.739922 -16.94962 11.22586 88.11252 33.54194 -22.91848 -0 0 10.29326 -11.10549 11.23004 6.403617 8.706621 -23.20822 -0.3634213 -87.84463 21.78119 13.26741 0 0 -26.78029 9.515909 10.87204 2.944239
2.796841 100.1194 33.07387 -2.125346 1.936226 3.01975 7.897069 -33.03829 -1.315058 -0 12.9153 -0 -12.33814 6.420413 3.062869 -4.897164 15.21514 -11.16737 -0 25.76968 -0 2.122537 -18.80927 12.74854 -1.42539 -1.345831 3.77091 3.304344 9.245889 -9.331167 1.023334 18.20629 8.513653 5.14715 -26.52002 8.660901 4.779156 -16.73508 11.26077 88.13721 33.03517 -23.18894 -0 0 10.0286 -11.31353 11.19806 6.548466 8.52862 -23.25227 -0.6555383 -87.81691 21.88361 13.29087 0 0 -26.65512 8.842068 10.61196 3.791454
3.123071 100.8268 39.38903 -2.9612 1.753882 3.157702 9.141816 -29.07626 0.2043958 -0 14.46527 -0 -11.83014 4.72511 1.879163 -3.843704 13.22414 -10.21678 -0 35.33016 -0 -1.602138 -14.34446 9.654242 -1.310252 -1.30857 3.76418 3.354921 9.496503 -9.356367 1.006782 18.382 8.188546 4.927195 -26.12297 8.342355 4.882365 -16.58145 11.32108 88.05388 32.43704 -23.29459 -0 0 9.922897 -11.4041 11.00649 6.652577 8.159685 -23.13812 -1.038564 -87.98105 22.01803 13.62858 0 0 -25.89259 8.11808 10.45094 4.647028
3.509582 102.1249 45.72847 -3.287862 1.907603 2.963615 9.432953 -23.90289 1.906362 -0 15.27605 -0 -10.99364 1.752654 0.316514 -3.211998 9.132432 -9.706645 -0 45.67271 -0 -4.298 -9.602287 7.599584 -1.219967 -1.277869 3.789067 3.39993 9.794932 -9.32013 1.002787 18.6778 7.753079 4.613401 -25.66504 7.99863 5.034628 -16.49475 11.40617 87.8521 31.81705 -23.19501 -0 0 9.980554 -11.40971 10.69645 6.74791 7.638958 -22.87824 -1.466 -88.30841 22.18528 14.24791 0 0 -24.63764 7.368602 10.38933 5.495152
